<svg width="24" height="25" viewBox="0 0 24 25" fill="none" xmlns="http://www.w3.org/2000/svg">
    <mask id="24bja294fa" style="mask-type:luminance" maskUnits="userSpaceOnUse" x="0" y="0" width="24" height="25">
        <path fill="#fff" d="M0 .404h24v24H0z"/>
    </mask>
    <g mask="url(#24bja294fa)">
        <path fill-rule="evenodd" clip-rule="evenodd" d="M7.376 12.405a4.623 4.623 0 1 0 9.246.002 4.623 4.623 0 0 0-9.246-.002zm1.619.001a3.003 3.003 0 1 1 6.007 0 3.003 3.003 0 0 1-6.007 0zm8.889-4.794a1.078 1.078 0 1 0-2.156 0 1.078 1.078 0 0 0 2.156 0zm.016-3.728a6.606 6.606 0 0 0-2.186-.42c-.963-.042-1.268-.054-3.71-.054s-2.755 0-3.71.054a6.554 6.554 0 0 0-2.184.42 4.6 4.6 0 0 0-2.633 2.632 6.585 6.585 0 0 0-.419 2.186c-.043.962-.056 1.267-.056 3.71 0 2.442 0 2.753.056 3.71.015.748.156 1.486.419 2.187a4.61 4.61 0 0 0 2.634 2.632 6.584 6.584 0 0 0 2.185.45c.963.042 1.268.055 3.71.055s2.755 0 3.71-.055a6.615 6.615 0 0 0 2.186-.419 4.613 4.613 0 0 0 2.633-2.633c.263-.7.404-1.438.419-2.186.043-.962.056-1.267.056-3.71s0-2.753-.056-3.71a6.581 6.581 0 0 0-.421-2.217A4.605 4.605 0 0 0 17.9 3.884zm1.104 13.852a2.987 2.987 0 0 1-1.712 1.711 4.985 4.985 0 0 1-1.67.311c-.95.044-1.218.055-3.654.055-2.438 0-2.687 0-3.655-.055a4.96 4.96 0 0 1-1.67-.31 2.985 2.985 0 0 1-1.718-1.712 5.08 5.08 0 0 1-.311-1.669c-.043-.95-.053-1.218-.053-3.654 0-2.437 0-2.686.053-3.655a5.038 5.038 0 0 1 .311-1.687c.305-.789.93-1.41 1.719-1.712a5.01 5.01 0 0 1 1.669-.31c.95-.044 1.218-.056 3.655-.056s2.687 0 3.654.055a4.96 4.96 0 0 1 1.67.311 2.991 2.991 0 0 1 1.712 1.712 5.08 5.08 0 0 1 .311 1.67c.043.95.054 1.217.054 3.654 0 2.436 0 2.698-.043 3.654h-.011a5.043 5.043 0 0 1-.311 1.687z" fill="#fff"/>
    </g>
</svg>
