<svg width="28" height="29" viewBox="0 0 28 29" fill="none" xmlns="http://www.w3.org/2000/svg">
    <mask id="m7jl5qlapa" style="mask-type:luminance" maskUnits="userSpaceOnUse" x="0" y="0" width="28" height="29">
        <path fill="#fff" d="M0 .234h28v28H0z"/>
    </mask>
    <g mask="url(#m7jl5qlapa)">
        <path fill-rule="evenodd" clip-rule="evenodd" d="M8.605 14.234a5.393 5.393 0 1 0 10.787 0 5.395 5.395 0 0 0-10.787 0zm1.89.002a3.504 3.504 0 1 1 7.007 0 3.504 3.504 0 0 1-7.008 0zm10.37-5.593a1.258 1.258 0 1 0-2.516 0 1.258 1.258 0 0 0 2.516 0zm.018-4.35a7.708 7.708 0 0 0-2.55-.49c-1.124-.049-1.48-.063-4.328-.063-2.85 0-3.215 0-4.329.063a7.647 7.647 0 0 0-2.548.49 5.366 5.366 0 0 0-3.072 3.07 7.682 7.682 0 0 0-.488 2.551c-.05 1.123-.066 1.478-.066 4.329 0 2.849 0 3.211.066 4.328.017.873.182 1.734.488 2.551a5.378 5.378 0 0 0 3.073 3.071 7.682 7.682 0 0 0 2.55.525c1.123.05 1.479.064 4.328.064s3.214 0 4.328-.064a7.717 7.717 0 0 0 2.55-.489 5.38 5.38 0 0 0 3.072-3.072 7.681 7.681 0 0 0 .49-2.55c.05-1.122.065-1.478.065-4.328 0-2.85 0-3.212-.066-4.329a7.678 7.678 0 0 0-.49-2.586 5.373 5.373 0 0 0-3.073-3.07zm1.288 16.16a3.485 3.485 0 0 1-1.997 1.997 5.816 5.816 0 0 1-1.948.363c-1.109.051-1.421.064-4.263.064-2.845 0-3.135 0-4.265-.064a5.788 5.788 0 0 1-1.947-.363 3.482 3.482 0 0 1-2.005-1.996 5.928 5.928 0 0 1-.363-1.947c-.05-1.109-.062-1.421-.062-4.263 0-2.843 0-3.134.062-4.264.008-.672.13-1.337.363-1.969A3.484 3.484 0 0 1 7.75 6.014a5.844 5.844 0 0 1 1.947-.363c1.11-.05 1.421-.064 4.265-.064 2.843 0 3.134 0 4.263.064.666.008 1.324.13 1.948.363a3.49 3.49 0 0 1 1.997 1.997 5.93 5.93 0 0 1 .363 1.948c.05 1.11.063 1.42.063 4.264 0 2.842 0 3.147-.05 4.263h-.013v-.001a5.885 5.885 0 0 1-.363 1.969z" fill="#191516"/>
    </g>
</svg>
