<svg width="310" height="26" viewBox="0 0 310 26" fill="none" xmlns="http://www.w3.org/2000/svg">
    <path d="M307.47 22.197h1.575v3.08h-1.575v-3.08zM302.83 25.277h-1.61V2.247h-5.005V.777H307.8v1.47h-4.97v23.03zM289.425.568c3.745 0 5.285 2.66 5.285 6.195v2.03h-1.54V6.658c0-2.625-1.015-4.62-3.71-4.62-2.695 0-3.71 1.995-3.71 4.62v12.74c0 2.625 1.015 4.585 3.71 4.585 2.695 0 3.71-1.96 3.71-4.585v-2.905h1.54v2.8c0 3.535-1.54 6.195-5.285 6.195s-5.285-2.66-5.285-6.195V6.763c0-3.535 1.54-6.195 5.285-6.195zM273.934 12.117h6.685v1.47h-6.685v10.22h8.05v1.47h-9.66V.777h9.66v1.47h-8.05v9.87zM265.599 25.277h-1.61V2.247h-5.005V.777h11.585v1.47h-4.97v23.03zM255.695.777h1.61v24.5h-1.61V.777zM251.613 13.762h-7.63v11.515h-1.61V.777h1.61v11.515h7.63V.777h1.645v24.5h-1.645V13.762zM234.812.568c3.745 0 5.285 2.66 5.285 6.195v2.03h-1.54V6.658c0-2.625-1.015-4.62-3.71-4.62-2.695 0-3.71 1.995-3.71 4.62v12.74c0 2.625 1.015 4.585 3.71 4.585 2.695 0 3.71-1.96 3.71-4.585v-2.905h1.54v2.8c0 3.535-1.54 6.195-5.285 6.195s-5.285-2.66-5.285-6.195V6.763c0-3.535 1.54-6.195 5.285-6.195zM216.481.777h5.11c3.745 0 5.25 2.065 5.25 5.53v2.135c0 2.87-1.12 4.515-3.535 5.075 2.52.56 3.535 2.345 3.535 5.005v3.815c0 1.015.07 2.135.595 2.94h-1.68c-.42-.735-.525-1.61-.525-2.94v-3.85c0-3.255-1.785-4.165-4.585-4.165h-2.555v10.955h-1.61V.777zm1.61 12.075h2.59c2.87 0 4.55-.805 4.55-4.095v-2.31c0-2.625-1.015-4.2-3.675-4.2h-3.465v10.605zM211.562 19.852h-7.63l-1.225 5.425h-1.47L206.592.742h2.345l5.46 24.535h-1.61l-1.225-5.425zm-3.85-17.255-3.535 15.855h7.14l-3.605-15.855zM183.237.777l2.835 17.395L188.697.777h5.355v24.5h-3.64V7.707l-2.66 17.57h-3.64l-2.87-17.325v17.325h-3.36V.777h5.355zM172.554.777l3.92 24.5h-3.885l-.665-4.445h-4.725l-.665 4.445h-3.535l3.92-24.5h5.635zm-3.01 4.34-1.855 12.39h3.71l-1.855-12.39zM153.278 14.777v10.5h-3.85V.777h3.85v10.5h4.375V.777h3.92v24.5h-3.92v-10.5h-4.375zM141.915 15.128v-3.5h5.39v7.77c0 3.92-1.96 6.16-5.74 6.16-3.78 0-5.74-2.24-5.74-6.16V6.658c0-3.92 1.96-6.16 5.74-6.16 3.78 0 5.74 2.24 5.74 6.16v2.38h-3.64V6.413c0-1.75-.77-2.415-1.995-2.415s-1.995.665-1.995 2.415v13.23c0 1.75.77 2.38 1.995 2.38s1.995-.63 1.995-2.38v-4.515h-1.75zM129.778 25.277l-4.795-17.745v17.745h-3.465V.777h4.83l3.955 14.665V.777h3.43v24.5h-3.955zM115.238 25.277V.777h3.85v24.5h-3.85zM102.007 6.658c0-3.92 1.925-6.16 5.67-6.16s5.67 2.24 5.67 6.16v.77h-3.64V6.413c0-1.75-.7-2.415-1.925-2.415s-1.925.665-1.925 2.415c0 5.04 7.525 5.985 7.525 12.985 0 3.92-1.96 6.16-5.74 6.16-3.78 0-5.74-2.24-5.74-6.16v-1.505h3.64v1.75c0 1.75.77 2.38 1.995 2.38s1.995-.63 1.995-2.38c0-5.04-7.525-5.985-7.525-12.985zM89.267 6.658c0-3.92 1.925-6.16 5.67-6.16s5.67 2.24 5.67 6.16v.77h-3.64V6.413c0-1.75-.7-2.415-1.925-2.415s-1.925.665-1.925 2.415c0 5.04 7.525 5.985 7.525 12.985 0 3.92-1.96 6.16-5.74 6.16-3.78 0-5.74-2.24-5.74-6.16v-1.505h3.64v1.75c0 1.75.77 2.38 1.995 2.38s1.995-.63 1.995-2.38c0-5.04-7.525-5.985-7.525-12.985zM84.394.777l3.92 24.5h-3.885l-.665-4.445h-4.725l-.665 4.445h-3.535l3.92-24.5h5.635zm-3.01 4.34-1.855 12.39h3.71l-1.855-12.39zM62.588.777l2.835 17.395L68.048.777h5.355v24.5h-3.64V7.707l-2.66 17.57h-3.64l-2.87-17.325v17.325h-3.36V.777h5.355zM43.498 4.277v6.825h5.285v3.5h-5.285v7.175h6.65v3.5h-10.5V.777h10.5v3.5h-6.65zM34.29 25.277l-3.744-9.765-1.19 2.24v7.525h-3.85V.777h3.85v10.675L34.396.777h3.85l-5.355 10.92 5.355 13.58H34.29zM11.735.777h3.85v18.9c0 1.75.77 2.38 1.995 2.38s1.995-.63 1.995-2.38V.777h3.64v18.655c0 3.92-1.96 6.16-5.74 6.16-3.78 0-5.74-2.24-5.74-6.16V.777zM.4 25.277V.777h3.85v21h6.335v3.5H.4z" fill="#fff"/>
</svg>
