<svg width="398" height="33" viewBox="0 0 398 33" fill="none" xmlns="http://www.w3.org/2000/svg">
    <path d="M395.39 28.107h2.025v3.96h-2.025v-3.96zM389.424 32.066h-2.07V2.456h-6.435V.566h14.895v1.89h-6.39v29.61zM372.188.297c4.815 0 6.795 3.42 6.795 7.965v2.61h-1.98V8.127c0-3.375-1.305-5.94-4.77-5.94s-4.77 2.565-4.77 5.94v16.38c0 3.375 1.305 5.895 4.77 5.895s4.77-2.52 4.77-5.895v-3.735h1.98v3.6c0 4.545-1.98 7.965-6.795 7.965-4.815 0-6.795-3.42-6.795-7.965V8.262c0-4.545 1.98-7.965 6.795-7.965zM352.272 15.146h8.595v1.89h-8.595v13.14h10.35v1.89h-12.42V.566h12.42v1.89h-10.35v12.69zM341.555 32.066h-2.07V2.456h-6.435V.566h14.895v1.89h-6.39v29.61zM328.821.566h2.07v31.5h-2.07V.566zM323.573 17.261h-9.81v14.805h-2.07V.566h2.07v14.805h9.81V.566h2.115v31.5h-2.115V17.261zM301.972.297c4.815 0 6.795 3.42 6.795 7.965v2.61h-1.98V8.127c0-3.375-1.305-5.94-4.77-5.94s-4.77 2.565-4.77 5.94v16.38c0 3.375 1.305 5.895 4.77 5.895s4.77-2.52 4.77-5.895v-3.735h1.98v3.6c0 4.545-1.98 7.965-6.795 7.965-4.815 0-6.795-3.42-6.795-7.965V8.262c0-4.545 1.98-7.965 6.795-7.965zM278.404.566h6.57c4.815 0 6.75 2.655 6.75 7.11v2.745c0 3.69-1.44 5.805-4.545 6.525 3.24.72 4.545 3.015 4.545 6.435v4.905c0 1.305.09 2.745.765 3.78h-2.16c-.54-.945-.675-2.07-.675-3.78v-4.95c0-4.185-2.295-5.355-5.895-5.355h-3.285v14.085h-2.07V.566zm2.07 15.525h3.33c3.69 0 5.85-1.035 5.85-5.265v-2.97c0-3.375-1.305-5.4-4.725-5.4h-4.455v13.635zM272.079 25.091h-9.81l-1.575 6.975h-1.89L265.689.521h3.015l7.02 31.545h-2.07l-1.575-6.975zm-4.95-22.185-4.545 20.386h9.18l-4.635-20.386zM235.661.566l3.645 22.365L242.681.566h6.885v31.5h-4.68V9.476l-3.42 22.59h-4.68l-3.69-22.275v22.275h-4.32V.566h6.885zM221.926.566l5.04 31.5h-4.995l-.855-5.715h-6.075l-.855 5.715h-4.545l5.04-31.5h7.245zm-3.87 5.58-2.385 15.93h4.77l-2.385-15.93zM197.142 18.566v13.5h-4.95V.566h4.95v13.5h5.625V.566h5.04v31.5h-5.04v-13.5h-5.625zM182.533 19.017v-4.5h6.93v9.99c0 5.04-2.52 7.92-7.38 7.92-4.86 0-7.38-2.88-7.38-7.92V8.127c0-5.04 2.52-7.92 7.38-7.92 4.86 0 7.38 2.88 7.38 7.92v3.06h-4.68V7.812c0-2.25-.99-3.105-2.565-3.105s-2.565.855-2.565 3.105v17.01c0 2.25.99 3.06 2.565 3.06s2.565-.81 2.565-3.06v-5.805h-2.25zM166.929 32.066l-6.165-22.815v22.815h-4.455V.566h6.21l5.085 18.855V.566h4.41v31.5h-5.085zM148.234 32.066V.566h4.95v31.5h-4.95zM131.223 8.127c0-5.04 2.475-7.92 7.29-7.92 4.815 0 7.29 2.88 7.29 7.92v.99h-4.68V7.812c0-2.25-.9-3.105-2.475-3.105-1.575 0-2.475.855-2.475 3.105 0 6.48 9.675 7.695 9.675 16.695 0 5.04-2.52 7.92-7.38 7.92-4.86 0-7.38-2.88-7.38-7.92v-1.935h4.68v2.25c0 2.25.99 3.06 2.565 3.06s2.565-.81 2.565-3.06c0-6.48-9.675-7.695-9.675-16.695zM114.842 8.127c0-5.04 2.475-7.92 7.29-7.92 4.815 0 7.29 2.88 7.29 7.92v.99h-4.68V7.812c0-2.25-.9-3.105-2.475-3.105-1.575 0-2.475.855-2.475 3.105 0 6.48 9.675 7.695 9.675 16.695 0 5.04-2.52 7.92-7.38 7.92-4.86 0-7.38-2.88-7.38-7.92v-1.935h4.68v2.25c0 2.25.99 3.06 2.565 3.06s2.565-.81 2.565-3.06c0-6.48-9.675-7.695-9.675-16.695zM108.577.566l5.04 31.5h-4.995l-.855-5.715h-6.075l-.855 5.715h-4.545l5.04-31.5h7.245zm-3.87 5.58-2.385 15.93h4.77l-2.385-15.93zM80.541.566l3.645 22.365L87.561.566h6.885v31.5h-4.68V9.476l-3.42 22.59h-4.68l-3.69-22.275v22.275h-4.32V.566h6.885zM55.997 5.066v8.775h6.795v4.5h-6.795v9.225h8.55v4.5h-13.5V.566h13.5v4.5h-8.55zM44.159 32.066l-4.815-12.555-1.53 2.88v9.675h-4.95V.566h4.95v13.725L44.294.566h4.95l-6.885 14.04 6.885 17.46h-5.085zM15.16.566h4.95v24.3c0 2.25.99 3.06 2.564 3.06 1.575 0 2.565-.81 2.565-3.06V.566h4.68v23.985c0 5.04-2.52 7.92-7.38 7.92-4.86 0-7.38-2.88-7.38-7.92V.566zM.585 32.066V.566h4.95v27h8.145v4.5H.585z" fill="#383838"/>
</svg>
